<svg width="42" height="42" viewBox="0 0 42 42" fill="none" xmlns="http://www.w3.org/2000/svg">
<path d="M0 0V19.2509C4.7477 20.6332 9.12972 24.5003 9.12972 24.5003C9.12972 24.5003 7.5766 30.7632 13.1481 36.7505C18.7176 42.7378 25.2916 39.6975 25.2916 39.6975L26.1134 42H42V0H0ZM16.618 4.0226C16.618 4.0226 18.8696 7.15405 18.8696 11.8212C18.8696 16.4883 15.9174 18.3908 15.9174 18.3908C15.9174 18.3908 13.8178 15.7505 10.5 13.2014C10.5 13.2014 16.8008 8.56538 16.618 4.02053V4.0226ZM11.4594 22.9667C11.4594 22.9667 7.38143 18.4385 5.38662 17.4105L7.57865 15.477C7.57865 15.477 13.5446 19.1307 13.3618 20.5897C13.1789 22.0487 11.4594 22.9688 11.4594 22.9688V22.9667ZM18.8696 36.9681C18.8696 36.9681 13.6658 34.2657 12.8728 24.9335C12.8728 24.9335 15.3073 21.6798 19.8721 21.8642C19.8721 21.8642 22.1854 30.2762 26.1421 34.5144C26.1421 34.5144 24.3158 38.2593 18.8675 36.9702L18.8696 36.9681ZM29.1272 31.5031C29.1272 31.5031 23.7714 26.1003 25.1088 20.1441C25.1088 20.1441 34.4213 16.9505 36.4305 9.88967C36.4305 9.88967 39.962 23.8911 29.1251 31.5052L29.1272 31.5031Z" fill="white"/>
<path d="M3.58286 34.8625C1.63941 34.8625 0.0636882 36.4521 0.0636882 38.4126C0.0636882 40.3731 1.63941 41.9627 3.58286 41.9627C5.52632 41.9627 7.10204 40.3731 7.10204 38.4126C7.10204 36.4521 5.52632 34.8625 3.58286 34.8625ZM3.58286 41.1337C2.09548 41.1337 0.885445 39.9131 0.885445 38.4126C0.885445 36.9122 2.09548 35.6915 3.58286 35.6915C5.07024 35.6915 6.28028 36.9122 6.28028 38.4126C6.28028 39.9131 5.07024 41.1337 3.58286 41.1337Z" fill="white"/>
<path d="M4.62855 39.5214L4.59773 38.8292C4.59157 38.6945 4.4909 38.5722 4.28957 38.4644C4.56486 38.3111 4.70045 38.0831 4.70045 37.7805C4.70045 37.5194 4.62239 37.3163 4.46625 37.1754C4.33888 37.0572 4.18685 36.9971 4.01223 36.9971H2.43446V39.8281H3.01174V38.709H3.69791C3.83966 38.709 3.93416 38.7483 3.98347 38.825C4.01634 38.8768 4.03277 38.9597 4.03277 39.0737V39.5006C4.03277 39.5835 4.05948 39.6913 4.11084 39.826H4.73538V39.7182C4.66964 39.6706 4.63471 39.6063 4.6306 39.5193L4.62855 39.5214ZM4.0451 38.0955C3.97525 38.1805 3.89513 38.224 3.80885 38.224H3.01174V37.4821H3.82117C4.04099 37.4821 4.15193 37.594 4.15193 37.8157C4.15193 37.9173 4.117 38.0106 4.0451 38.0955Z" fill="white"/>
</svg>
